<svg xmlns="http://www.w3.org/2000/svg" xmlns:xlink="http://www.w3.org/1999/xlink" width="13px"
    height="13px" viewBox="0 0 13 13" version="1.1">
    <g id="surface1">
        <path style=" stroke:none;fill-rule:nonzero;fill:rgb(0%,0%,0%);fill-opacity:1;"
            d="M 6.5 1.625 C 6.5 1.625 3.148438 4.515625 1.277344 6.085938 C 1.15625 6.1875 1.085938 6.339844 1.082031 6.5 C 1.082031 6.800781 1.324219 7.042969 1.625 7.042969 L 2.707031 7.042969 L 2.707031 10.832031 C 2.707031 11.132812 2.949219 11.375 3.25 11.375 L 4.875 11.375 C 5.175781 11.375 5.417969 11.132812 5.417969 10.832031 L 5.417969 8.667969 L 7.582031 8.667969 L 7.582031 10.832031 C 7.582031 11.132812 7.824219 11.375 8.125 11.375 L 9.75 11.375 C 10.050781 11.375 10.292969 11.132812 10.292969 10.832031 L 10.292969 7.042969 L 11.375 7.042969 C 11.675781 7.042969 11.917969 6.800781 11.917969 6.5 C 11.914062 6.335938 11.839844 6.183594 11.710938 6.085938 C 9.851562 4.515625 6.5 1.625 6.5 1.625 Z M 6.5 1.625 " />
    </g>
</svg>