<svg xmlns="http://www.w3.org/2000/svg" xmlns:xlink="http://www.w3.org/1999/xlink">

	<!-- <symbol id="phone" fill="currentColor" viewBox="0 0 24 24">
		<path
			d="M18.4 20.75H18.17C15.5788 20.4681 13.0893 19.5846 10.9 18.17C8.86618 16.8747 7.13938 15.1513
	5.84 13.12C4.42216 10.925 3.53852 8.42823 3.26 5.83001C3.22816 5.52011 3.2596 5.20696 3.35243
	4.90958C3.44525 4.6122 3.59752 4.33677 3.8 4.10001C3.99694 3.86008 4.24002 3.66211 4.51486
	3.51782C4.78969 3.37354 5.09068 3.28587 5.4 3.26001H8C8.56312 3.26058 9.10747 3.46248 9.53476
	3.82925C9.96205 4.19602 10.2441 4.70349 10.33 5.26001C10.425 5.97489 10.6028 6.67628 10.86
	7.35001C11.0164 7.77339 11.0487 8.23264 10.9531 8.67375C10.8574 9.11485 10.6378 9.51947 10.32
	9.84001L9.71 10.45C10.6704 11.9662 11.9587 13.2477 13.48 14.2L14.09 13.6C14.4105 13.2822 14.8152
	13.0626 15.2563 12.9669C15.6974 12.8713 16.1566 12.9036 16.58 13.06C17.2545 13.3148 17.9556
	13.4926 18.67 13.59C19.236 13.6751 19.7515 13.9638 20.1198 14.402C20.488 14.8403 20.6837 15.3978
	20.67 15.97V18.37C20.67 18.9942 20.4227 19.593 19.9823 20.0353C19.5419 20.4776 18.9442 20.7274
	18.32 20.73L18.4 20.75ZM8 4.75001H5.61C5.49265 4.75777 5.37809 4.78924 5.27325 4.84252C5.1684
	4.8958 5.07545 4.96979 5 5.06001C4.92658 5.14452 4.871 5.24302 4.83663 5.34957C4.80226 5.45612
	4.7898 5.56852 4.8 5.68001C5.04249 8.03679 5.83362 10.304 7.11 12.3C8.28664 14.1467 9.85332
	15.7134 11.7 16.89C13.6973 18.1798 15.967 18.9878 18.33 19.25C18.4529 19.2569 18.5759 19.2383
	18.6912 19.1953C18.8065 19.1522 18.9117 19.0857 19 19C19.1592 18.8368 19.2489 18.6181 19.25
	18.39V16C19.2545 15.7896 19.1817 15.5848 19.0453 15.4244C18.9089 15.2641 18.7184 15.1593 18.51
	15.13C17.6839 15.0189 16.8724 14.8177 16.09 14.53C15.9359 14.4724 15.7686 14.4596 15.6075
	14.4933C15.4464 14.5269 15.2982 14.6055 15.18 14.72L14.18 15.72C14.0629 15.8342 13.912 15.9076
	13.7499 15.9292C13.5877 15.9508 13.423 15.9195 13.28 15.84C11.1462 14.6342 9.37997 12.8715 8.17
	10.74C8.08718 10.598 8.05402 10.4324 8.07575 10.2694C8.09748 10.1065 8.17286 9.95538 8.29
	9.84001L9.29 8.84001C9.40468 8.72403 9.48357 8.57751 9.51726 8.41793C9.55095 8.25835 9.53802
	8.09244 9.48 7.94001C9.19119 7.15799 8.98997 6.34637 8.88 5.52001C8.85519 5.30528 8.75133
	5.10747 8.58865 4.96513C8.42597 4.82278 8.21613 4.7461 8 4.75001Z"
			fill="currentColor" />
	</symbol>

	<symbol id="geo" xmlns="http://www.w3.org/2000/svg" fill="currentColor"
		class="bi bi-geo-alt-fill" viewBox="0 0 16 16">
		<path
			d="M8 16s6-5.686 6-10A6 6 0 0 0 2 6c0 4.314 6 10 6 10zm0-7a3 3 0 1 1 0-6 3 3 0 0 1 0 6z" />
	</symbol>

	<symbol id="dzen" fill="currentColor" xmlns="http://www.w3.org/2000/svg" viewBox="0 0 50 50">
		<path
			d="M46.894 23.986c.004 0 .007 0 .011 0 .279 0 .545-.117.734-.322.192-.208.287-.487.262-.769C46.897
	11.852 38.154 3.106 27.11 2.1c-.28-.022-.562.069-.77.262-.208.192-.324.463-.321.746C26.193
	17.784 28.129 23.781 46.894 23.986zM46.894 26.014c-18.765.205-20.7 6.202-20.874
	20.878-.003.283.113.554.321.746.186.171.429.266.679.266.03 0 .061-.001.091-.004 11.044-1.006
	19.787-9.751 20.79-20.795.025-.282-.069-.561-.262-.769C47.446 26.128 47.177 26.025 46.894
	26.014zM22.823 2.105C11.814 3.14 3.099 11.884 2.1
	22.897c-.025.282.069.561.262.769.189.205.456.321.734.321.004 0 .008 0 .012 0 18.703-.215
	20.634-6.209 20.81-20.875.003-.283-.114-.555-.322-.747C23.386 2.173 23.105 2.079 22.823
	2.105zM3.107 26.013c-.311-.035-.555.113-.746.321-.192.208-.287.487-.262.769.999 11.013 9.715
	19.757 20.724 20.792.031.003.063.004.094.004.25 0
	.492-.094.678-.265.208-.192.325-.464.322-.747C23.741 32.222 21.811 26.228 3.107 26.013z" />
	</symbol>


	<symbol id="vk" fill="currentColor" viewBox="0 0 20 20"
		xmlns="http://www.w3.org/2000/svg">
		<path
			d="M10 .4C4.698.4.4 4.698.4 10s4.298 9.6 9.6 9.6 9.6-4.298 9.6-9.6S15.302.4 10 .4zm3.692
	10.831s.849.838 1.058
	1.227c.006.008.009.016.011.02.085.143.105.254.063.337-.07.138-.31.206-.392.212h-1.5c-.104
	0-.322-.027-.586-.209-.203-.142-.403-.375-.598-.602-.291-.338-.543-.63-.797-.63a.305.305 0 0
	0-.095.015c-.192.062-.438.336-.438 1.066 0 .228-.18.359-.307.359h-.687c-.234
	0-1.453-.082-2.533-1.221-1.322-1.395-2.512-4.193-2.522-4.219-.075-.181.08-.278.249-.278h1.515c.202
	0 .268.123.314.232.054.127.252.632.577 1.2.527.926.85 1.302 1.109 1.302a.3.3 0 0 0
	.139-.036c.338-.188.275-1.393.26-1.643
	0-.047-.001-.539-.174-.775-.124-.171-.335-.236-.463-.26a.55.55 0 0 1 .199-.169c.232-.116.65-.133
	1.065-.133h.231c.45.006.566.035.729.076.33.079.337.292.308 1.021-.009.207-.018.441-.018.717 0
	.06-.003.124-.003.192-.01.371-.022.792.24.965a.216.216 0 0 0 .114.033c.091 0 .365 0
	1.107-1.273a9.718 9.718 0 0 0 .595-1.274c.015-.026.059-.106.111-.137a.266.266 0 0 1
	.124-.029h1.781c.194 0 .327.029.352.104.044.119-.008.482-.821 1.583l-.363.479c-.737.966-.737
	1.015.046 1.748z" />
	</symbol>

	<symbol id="telegram" fill="currentColor" viewBox="0 0 32 32" version="1.1"
		xmlns="http://www.w3.org/2000/svg">
		<path
			d="M22.122 10.040c0.006-0 0.014-0 0.022-0 0.209 0 0.403 0.065 0.562 0.177l-0.003-0.002c0.116 0.101
	0.194 0.243 0.213 0.403l0 0.003c0.020 0.122 0.031 0.262 0.031 0.405 0 0.065-0.002 0.129-0.007
	0.193l0-0.009c-0.225 2.369-1.201 8.114-1.697 10.766-0.21 1.123-0.623 1.499-1.023 1.535-0.869
	0.081-1.529-0.574-2.371-1.126-1.318-0.865-2.063-1.403-3.342-2.246-1.479-0.973-0.52-1.51
	0.322-2.384 0.221-0.23 4.052-3.715 4.127-4.031 0.004-0.019 0.006-0.040 0.006-0.062
	0-0.078-0.029-0.149-0.076-0.203l0 0c-0.052-0.034-0.117-0.053-0.185-0.053-0.045 0-0.088
	0.009-0.128 0.024l0.002-0.001q-0.198 0.045-6.316 4.174c-0.445 0.351-1.007 0.573-1.619
	0.599l-0.006 0c-0.867-0.105-1.654-0.298-2.401-0.573l0.074
	0.024c-0.938-0.306-1.683-0.467-1.619-0.985q0.051-0.404 1.114-0.827 6.548-2.853
	8.733-3.761c1.607-0.853 3.47-1.555 5.429-2.010l0.157-0.031zM15.93 1.025c-8.302 0.020-15.025
	6.755-15.025 15.060 0 8.317 6.742 15.060 15.060 15.060s15.060-6.742
	15.060-15.060c0-8.305-6.723-15.040-15.023-15.060h-0.002q-0.035-0-0.070 0z"></path>
	</symbol>

	<symbol id="avito" viewBox="0 0 90 90" xmlns="http://www.w3.org/2000/svg">
		<g fill="transparent">
			<path d="M0 0h90v90H0z" />
			<circle fill="currentColor" cx="59" cy="59" r="16" />
			<circle fill="currentColor" cx="29" cy="29" r="13" />
			<circle fill="currentColor" cx="59" cy="29" r="10" />
			<circle fill="currentColor" cx="28.5" cy="58.5" r="7.5" />
		</g>
	</symbol>


	<symbol id="instagram" fill="currentColor" height="100px" version="1.1"
		viewBox="0 0 100 100" width="100px" xml:space="preserve" xmlns="http://www.w3.org/2000/svg"
		xmlns:xlink="http://www.w3.org/1999/xlink">
    <g><path
	d="M53.141,42.115c-4.122-1.816-9.202,0.339-10.959,4.406c-1.147,2.655-1.159,5.322-0.222,7.52
	c1.176,2.759,3.846,4.778,7.641,5.111c4.358,0.381,8.094-2.707,9.098-6.879C59.636,48.373,56.732,43.698,53.141,42.115z"
	fill="currentColor"/><path
	d="M59.181,27.961c-6.976-0.245-13.946,0.074-20.925,0.262c-8.965,0.24-10.741,10.399-10.552,18.273
	c0.031,1.296,0.004,2.622-0.041,3.962c-0.205,6.23-0.035,17.19,5.884,20.403c2.433,1.322,5.357,1.365,8.05,1.265
	c3.237-0.122,6.448-0.133,9.685,0.032c4.521,0.23,8.993,0.408,13.45-0.652c6.181-1.472,7.244-4.539,7.682-10.039
	c0.19-2.402-0.003-5.297,0.017-8.271c0.041-6.48,1.473-17.928-4.149-22.767C65.818,28.311,62.279,28.072,59.181,27.961z
	M57.382,62.07c-7.378,5.284-18.253,0.948-20.759-7.492c-0.17-0.571-0.302-1.16-0.391-1.768
	c-0.638-4.336,1.161-11.344,5.461-14.014c8.578-5.327,15.702-1.42,18.755,2.219c1.643,1.96,2.86,4.731,3.282,7.282
	C64.598,53.552,61.588,59.056,57.382,62.07z M65.272,39.3c-1.916,0.587-4.787-1.447-3.419-4.853
	c0.719-1.788,2.524-2.271,4.674-1.113C68.217,34.245,68.478,38.32,65.272,39.3z"
	fill="currentColor"/><path
	d="M50,3.84C24.506,3.84,3.84,24.506,3.84,50S24.506,96.16,50,96.16S96.16,75.494,96.16,50
	S75.494,3.84,50,3.84z
	M77.077,50.172c0.072,3.494-0.145,6.985-0.048,10.483c0.176,6.334-2.109,12.44-8.504,14.942
	c-7.756,3.034-17.212,1.365-25.343,1.365c-3.521,0-7.14,0.281-10.519-0.721c-2.585-0.768-4.252-2.23-6.043-4.236
	c-0.806-0.902-1.332-1.806-1.763-2.91c-2.081-5.339-1.681-10.24-1.912-15.858c-0.133-3.21-0.074-6.427-0.044-9.641
	c0.042-4.392,0.011-8.321,1.627-12.479c1.632-4.202,7.229-7.515,11.569-7.8c8.901-0.582,18.275-1.355,27.123,0.067
	c3.489,0.561,7.165,1.709,9.673,4.317c3.268,3.396,4.065,8.248,4.214,13.125C77.207,44.071,77.019,47.326,77.077,50.172z"
	fill="currentColor"/>
    </g></symbol>

	<symbol id="whatsapp" viewBox="0 0 20 20" version="1.1"
		xmlns="http://www.w3.org/2000/svg" xmlns:xlink="http://www.w3.org/1999/xlink">
		<g id="Page-1" stroke="none" stroke-width="1" fill="currentColor" fill-rule="evenodd">
			<g id="Dribbble-Light-Preview" transform="translate(-300.000000, -7599.000000)"
				fill="currentColor">
				<g id="icons" transform="translate(56.000000, 160.000000)">
					<path
						d="M259.821,7453.12124 C259.58,7453.80344 258.622,7454.36761 257.858,7454.53266 C257.335,7454.64369
	256.653,7454.73172 254.355,7453.77943 C251.774,7452.71011 248.19,7448.90097 248.19,7446.36621
	C248.19,7445.07582 248.934,7443.57337 250.235,7443.57337 C250.861,7443.57337 250.999,7443.58538
	251.205,7444.07952 C251.446,7444.6617 252.034,7446.09613 252.104,7446.24317 C252.393,7446.84635
	251.81,7447.19946 251.387,7447.72462 C251.252,7447.88266 251.099,7448.05372 251.27,7448.3478
	C251.44,7448.63589 252.028,7449.59418 252.892,7450.36341 C254.008,7451.35771 254.913,7451.6748
	255.237,7451.80984 C255.478,7451.90987 255.766,7451.88687 255.942,7451.69881 C256.165,7451.45774
	256.442,7451.05762 256.724,7450.6635 C256.923,7450.38141 257.176,7450.3464 257.441,7450.44643
	C257.62,7450.50845 259.895,7451.56477 259.991,7451.73382 C260.062,7451.85686 260.062,7452.43903
	259.821,7453.12124 M254.002,7439 L253.997,7439 L253.997,7439 C248.484,7439 244,7443.48535
	244,7449 C244,7451.18666 244.705,7453.21526 245.904,7454.86076 L244.658,7458.57687
	L248.501,7457.3485 C250.082,7458.39482 251.969,7459 254.002,7459 C259.515,7459 264,7454.51465
	264,7449 C264,7443.48535 259.515,7439 254.002,7439"
						id="whatsapp-[#128]">

					</path>
				</g>
			</g>
		</g>
	</symbol>

	<symbol id="menu" xmlns="http://www.w3.org/2000/svg" viewBox="0 0 30 30">
		<path stroke="currentColor" stroke-linecap="round" stroke-miterlimit="10"
			stroke-width="2" d="M4 7h22M4 15h22M4 23h22" />
	</symbol>


	<symbol id="search" xmlns="http://www.w3.org/2000/svg"
		fill="currentColor"
		class="bi bi-search" viewBox="0 0 16 16">
		<path
			d="M11.742 10.344a6.5 6.5 0 1 0-1.397 1.398h-.001c.03.04.062.078.098.115l3.85 3.85a1 1 0 0 0
	1.415-1.414l-3.85-3.85a1.007 1.007 0 0 0-.115-.1zM12 6.5a5.5 5.5 0 1 1-11 0 5.5 5.5 0 0 1 11 0z"
	/>
	</symbol>


	<symbol fill="currentColor" xmlns="http://www.w3.org/2000/svg" viewBox="0 0 100 100"
		id="development">
		<path
			d="m90.5 65.4-21.7 6.8c.2-.5.3-1
	.3-1.6.1-1.4-.4-2.8-1.4-3.9-1.1-1.1-2.7-1.7-4.2-1.7H49.6l-12-4.4c-3-1.1-6-1.6-9.2-1.6h-7.7v-3.8c0-2.2-1.8-4-4-4H6c-2.2
	0-4 1.8-4 4v34.7c0 2.2 1.8 4 4 4h10.6c2.2 0 4-1.8 4-4v-3.4H25c.9 0 1.9.2 2.7.5l25.7 9c.8.3 1.6.4
	2.4.4 1.2 0 2.4-.3 3.5-.9l35.6-20.3c1.2-.6 2.1-1.5
	2.7-2.8.1-.1.1-.2.1-.2.5-1.3.4-2.8-.2-4.1-1.2-2.7-4.4-3.9-7-2.7zM16.6 91.8H6c-1.1
	0-2-.9-2-2V55.1c0-1.1.9-2 2-2h10.6c1.1 0 2 .9 2 2v34.7c.1 1.1-.9 2-2 2zm79.2-20.3v.1c-.3.8-.9
	1.4-1.8 1.8L58.3
	93.7c-1.3.7-2.8.9-4.2.4l-24.5-8.7-1.2-.4c-1.1-.4-2.2-.6-3.4-.6h-4.4V60.9h7.7c2.9 0 5.8.5 8.5
	1.5L49 66.9c.1 0 .2.1.3.1h14.1c1 0 2 .4 2.7 1.2.6.7.9 1.5.9 2.4-.1.8-.4 1.6-1 2.2-.3.3-.6.5-1
	.7l-.8.3H48.6c-.6 0-1 .4-1 1s.4 1 1 1h15.1c.7 0 1.5-.2 2.1-.4L91 67.5h.1c1.7-.8 3.7-.1 4.4
	1.6.6.6.6 1.5.3 2.4z"></path>
		<path
			d="M11 81.9c-1.9 0-3.5 1.6-3.5 3.5s1.6 3.5 3.5 3.5 3.5-1.6 3.5-3.5c-.1-1.9-1.6-3.5-3.5-3.5zm0
	4.9c-.8 0-1.5-.7-1.5-1.5s.6-1.5 1.5-1.5c.8 0 1.5.7 1.5 1.5-.1.9-.7 1.5-1.5
	1.5zm29.6-61.6c-.1.2-.2.3-.4.3l-4.1.8c-1.3.2-2.3 1.3-2.5 2.6-.2 1.3-.3 2.6-.3 3.9 0 1.3.1 2.6.3
	3.9.2 1.3 1.2 2.4 2.5 2.6l4.1.8c.2 0 .3.2.4.3.3.9.6 1.7 1 2.5.1.2.1.3 0 .5l-2.3 3.4c-.8 1.1-.7
	2.6.1 3.6 1.6 2.1 3.4 3.9 5.5 5.5 1.1.8 2.5.9 3.6.1l3.4-2.4c.2-.1.3-.1.5 0 .8.4 1.7.7 2.5 1
	.2.1.3.2.3.4l.8 4.1c.2 1.3 1.3 2.3 2.6 2.5 1.3.2 2.6.3 3.9.3 1.3 0 2.6-.1 3.9-.3 1.3-.2 2.4-1.2
	2.6-2.5l.8-4.1c0-.2.2-.4.3-.4.8-.3 1.7-.6 2.5-1 .2-.1.4-.1.5 0l3.4 2.4c1.1.8 2.6.7 3.6-.1
	2.1-1.6 3.9-3.4 5.5-5.5.8-1.1.9-2.5.1-3.6l-2.3-3.4c-.1-.2-.1-.4 0-.5.4-.8.7-1.7
	1-2.5.1-.2.2-.3.4-.3l4.1-.8c1.3-.2 2.3-1.3 2.5-2.6.2-1.3.3-2.6.3-3.9
	0-1.3-.1-2.6-.3-3.9-.2-1.3-1.2-2.4-2.5-2.6l-3.9-.8c-.2
	0-.3-.2-.4-.3-.3-.8-.6-1.7-1-2.5-.1-.2-.1-.4
	0-.5l2.4-3.5c.8-1.1.7-2.6-.1-3.6-1.6-2.1-3.4-3.9-5.5-5.5-1.1-.8-2.5-.9-3.6-.1l-3.4
	2.3c-.2.1-.4.1-.5 0-.8-.4-1.6-.7-2.5-1-.2-.1-.3-.2-.3-.4l-.8-4.1C68.9 5 67.8 4 66.5
	3.8c-2.6-.3-5.2-.3-7.8 0-1.3.2-2.4 1.2-2.6 2.6l-.8 4.1c0 .2-.2.3-.3.4-.9.3-1.7.7-2.5
	1-.2.1-.4.1-.5 0l-3.4-2.3c-1.1-.8-2.6-.7-3.6.1-2.1 1.6-3.9 3.4-5.5 5.5-.8 1.1-.9 2.5-.1 3.6l2.4
	3.4c.1.2.1.3 0 .5-.5.8-.9 1.6-1.2 2.5zm2.7-4.1-2.4-3.5c-.3-.4-.3-.9 0-1.3 1.5-1.9 3.2-3.7
	5.1-5.1.4-.3.9-.3 1.3 0l3.4 2.4c.7.5 1.7.6 2.5.2.7-.3 1.5-.7 2.3-.9.8-.3 1.5-1
	1.6-1.9l.9-4.3c.1-.5.5-.8.9-.9 2.4-.3 4.9-.3 7.3 0 .5.1.9.4.9.9l.8 4.1c.2.9.8 1.6 1.6 1.9.8.3
	1.6.6 2.3.9.8.4 1.8.3 2.5-.2l3.4-2.3c.4-.3.9-.3 1.3 0 1.9 1.5 3.7 3.2 5.1 5.1.3.4.3.9 0 1.3l-2.4
	3.4c-.5.7-.6 1.7-.2 2.5.4.7.7 1.5.9 2.3.3.8 1 1.5 1.9 1.6l4.1.8c.5.1.8.5.9.9.2 1.2.2 2.4.2 3.6 0
	1.2-.1 2.4-.2 3.6-.1.5-.4.9-.9.9l-4.1.8c-.9.2-1.6.8-1.9 1.7-.3.8-.6 1.5-.9 2.3-.4.8-.3 1.8.2
	2.5l2.3 3.4c.3.4.3.9 0 1.3-1.5 1.9-3.2 3.7-5.1 5.1-.4.3-.9.3-1.3
	0l-3.4-2.4c-.7-.5-1.7-.6-2.5-.2-.7.4-1.5.7-2.3.9-.8.3-1.5 1-1.7 1.9l-.8
	4.1c-.1.5-.5.8-.9.9-2.4.3-4.9.3-7.3
	0-.5-.1-.8-.4-.9-.9l-.8-4.1c-.2-.9-.8-1.6-1.6-1.9-.8-.3-1.5-.6-2.3-.9-.3-.2-.7-.3-1.1-.3-.5 0-1
	.1-1.4.4l-3.4 2.4c-.4.3-.9.3-1.3 0-1.9-1.5-3.7-3.2-5.1-5.1-.3-.4-.3-.9
	0-1.3l2.4-3.4c.5-.7.6-1.7.2-2.5-.4-.7-.7-1.5-.9-2.3-.3-.8-1-1.5-1.9-1.6l-4.1-.8c-.5-.1-.8-.5-.9-.9-.2-1.2-.2-2.4-.2-3.6
	0-1.2.1-2.4.2-3.6.1-.5.4-.9.9-.9l4.1-.8c.9-.2 1.6-.8
	1.9-1.7.3-.8.6-1.5.9-2.3.4-.5.4-1.5-.1-2.2z"></path>
		<path
			d="M62.6 46.8c7.7 0 14-6.3 14-14s-6.3-14-14-14-14 6.3-14 14 6.3 14 14 14zm0-25.9c6.6 0 12 5.4 12
	12s-5.4 12-12 12-12-5.4-12-12c0-6.7 5.4-12 12-12z"></path>
	</symbol>

	<symbol fill="currentColor" xmlns="http://www.w3.org/2000/svg" viewBox="0 0 48 48" id="service">
		<g>
			<path
				d="M22 19H18a1 1 0 0 0 0 2h3v2H18a1 1 0 0 0-1 1v4a1 1 0 0 0 1 1h4a1 1 0 0 0 0-2H19V25h3a1 1 0 0 0
	1-1V20A1 1 0 0 0 22 19zM29 20v3H27V20a1 1 0 0 0-2 0v4a1 1 0 0 0 1 1h3v3a1 1 0 0 0 2 0V20A1 1 0 0
	0 29 20z"></path>
			<path
				d="M24,10A14,14,0,1,0,38,24,14,14,0,0,0,24,10Zm0,26A12,12,0,1,1,36,24,12,12,0,0,1,24,36Z"></path>
			<path
	d="M45.82,19.62c-1.75-.5-3.4-.74-4.29-2.91s.23-3.66,1-5.05A3,3,0,0,0,42,8.08L39.92,6a3,3,0,0,0-3.58-.5l-1.4.78a4.23,4.23,0,0,1-6.12-2.54l-.44-1.53A3,3,0,0,0,25.49,0h-3a3,3,0,0,0-2.89,2.18c-.46,1.61-.72,3.38-2.89,4.28s-3.7-.23-5.07-1A3,3,0,0,0,8.08,6L6,8.08a3,3,0,0,0-.51,3.58l.78,1.4a4.23,4.23,0,0,1-2.53,6.12l-1.54.44A3,3,0,0,0,0,22.51v3a3,3,0,0,0,2.18,2.89c1.74.49,3.4.74,4.29,2.91s-.22,3.66-1,5.05A3,3,0,0,0,6,39.92L8.08,42a3,3,0,0,0,3.58.51l1.42-.79a4.23,4.23,0,0,1,6.1,2.52l.44,1.56A3,3,0,0,0,22.51,48h3a3,3,0,0,0,2.89-2.18c.49-1.74.74-3.4,2.91-4.29s3.64.22,5.05,1A3,3,0,0,0,39.92,42L42,39.92a3,3,0,0,0,.5-3.58l-.79-1.42a4.23,4.23,0,0,1,2.51-6.09l1.58-.45A3,3,0,0,0,48,25.49v-3A3,3,0,0,0,45.82,19.62ZM46,25.49c0,.87-.64.94-2.3,1.41a6.23,6.23,0,0,0-3.71,9c.79,1.42,1.26,2,.62,2.61-2.14,2.14-2.46,2.75-3.3,2.28-1.71-1-3.76-2.35-6.83-1.08-4.63,1.91-3,6.3-5,6.3-4.15,0-3.61.45-4.39-2.29a6.25,6.25,0,0,0-6-4.5c-1.84,0-2.87.71-4.42,1.57-.84.46-1.16-.14-3.3-2.28-.66-.66-.12-1.27.62-2.61a6.23,6.23,0,0,0-3.72-9C2.76,26.46,2,26.41,2,25.49c0-3.1-.19-3.68.73-3.94,2-.58,4.34-1.05,5.58-4.05s-.07-5-1.09-6.81c-.46-.84.14-1.17,2.28-3.3.64-.64,1.2-.16,2.58.61a6.25,6.25,0,0,0,9-3.73C21.57,2.64,21.6,2,22.51,2c3.06,0,3.68-.19,3.94.73.54,1.87,1,4.32,4.05,5.58,4.66,1.93,6.61-2.31,8-.92,2.91,2.9,2.88,2.22,1.49,4.72a6.23,6.23,0,0,0,3.71,9C46.46,21.88,46,21.38,46,25.49Z"></path>
		</g>
	</symbol>


	<symbol fill="currentColor" xmlns="http://www.w3.org/2000/svg" viewBox="0 0 100 100"
		id="spare_parts">
		<path
			d="M9.5 79h26.2l-1.9 7.1h-4c-1 0-2 .4-2.7 1.1C26.4 88 26 89 26 90c0 2.1 1.7 3.8 3.9 3.8h40.3c2.1 0
	3.8-1.7 3.8-3.8 0-2.1-1.7-3.8-3.8-3.8h-4L64.3 79h26.2c4.1 0 7.5-3.4
	7.5-7.5V13.7c0-4.1-3.4-7.5-7.5-7.5h-81C5.4 6.1 2 9.5 2 13.7v57.8C2 75.7 5.4 79 9.5 79zM72 90c0
	1-.8 1.8-1.8 1.8H29.8c-1 0-1.9-.8-1.9-1.8 0-.5.2-1 .5-1.3.4-.4.8-.5 1.3-.5H70c1.2 0 2 .8 2
	1.8zm-7.9-3.8H35.9l1.9-7.1h24.5l1.8 7.1zM4 13.7c0-3 2.5-5.5 5.5-5.5h81c3 0 5.5 2.5 5.5
	5.5v57.8c0 3-2.5 5.5-5.5 5.5h-81c-3 0-5.5-2.5-5.5-5.5V13.7z"></path>
		<path
			d="M13.9 65.1h72.3c1.8 0 3.2-1.4 3.2-3.2V18c0-1.8-1.4-3.2-3.2-3.2H13.9c-1.8 0-3.2 1.4-3.2
	3.2v43.9c0 1.8 1.4 3.2 3.2 3.2zM12.7 18c0-.6.5-1.2 1.2-1.2h72.3c.6 0 1.2.5 1.2 1.2v43.9c0 .6-.5
	1.2-1.2 1.2H13.9c-.6 0-1.2-.5-1.2-1.2V18zM50 66.8c-2.3 0-4.1 1.8-4.1 4.1S47.7 75 50 75s4.1-1.8
	4.1-4.1-1.8-4.1-4.1-4.1zm0 6.2c-1.2 0-2.1-.9-2.1-2.1s.9-2.1 2.1-2.1c1.2 0 2.1.9 2.1 2.1S51.2 73
	50 73z"></path>
		<path
			d="m31.7 44.5 4.1.8c.2.5.4 1.1.7 1.6l-2.4 3.5c-.5.8-.4 1.8.2 2.5l3.2 3.2c.7.7 1.7.8
	2.5.2l3.5-2.4c.5.3 1.1.5 1.6.6l.8 4.2c.2.9 1 1.6 1.9 1.6h4.5c.9 0 1.7-.7 1.9-1.6l.8-4.1c.5-.2
	1.1-.4 1.6-.7l3.5 2.4c.8.5 1.8.4 2.5-.2l3.2-3.2c.7-.7.8-1.7.2-2.5l-2.4-3.5c.2-.5.5-1
	.7-1.6l4.1-.8c.9-.2 1.6-1
	1.6-1.9V38c0-.9-.7-1.7-1.6-1.9l-4.1-.8c-.2-.5-.4-1.1-.7-1.6l2.4-3.5c.5-.8.4-1.8-.2-2.5l-3.2-3.2c-.7-.7-1.7-.8-2.5-.2l-3.5
	2.4c-.5-.3-1.1-.5-1.6-.6l-.8-4.1c-.2-.9-1-1.6-1.9-1.6h-4.5c-.9 0-1.7.7-1.9 1.6l-.8
	4.1c-.5.2-1.1.4-1.6.7L40 24.4c-.8-.5-1.8-.4-2.5.2l-3.2 3.2c-.7.7-.8 1.7-.2 2.5l2.4 3.5c-.3.5-.5
	1.1-.6 1.6l-4.2.8c-.9.2-1.6 1-1.6 1.9v4.5c0 .9.7 1.7 1.6 1.9zm4.5-7.2c.7-.1 1.3-.6
	1.5-1.3.2-.5.4-.9.6-1.4.3-.6.2-1.4-.1-1.9l-2.4-3.4 3.1-3.2 3.5 2.4c.6.4 1.3.5 2 .1.4-.2.9-.4
	1.4-.6.7-.2 1.1-.8 1.3-1.5l.7-4.1h4.5l.8 4.2c.1.7.6 1.3 1.3 1.5.5.2.9.4 1.4.6.6.3 1.4.2
	1.9-.1l3.4-2.4 3.2 3.1-2.4 3.5c-.4.6-.5 1.3-.1 1.9.2.5.4.9.6 1.4.2.7.8 1.1 1.5
	1.3l4.1.7v4.5l-4.2.8c-.7.1-1.3.6-1.5 1.3-.2.5-.4.9-.6 1.4-.3.6-.2 1.4.1 1.9l2.4 3.4-3.1
	3.2-3.5-2.4c-.6-.4-1.3-.5-1.9-.1-.5.2-.9.4-1.4.6-.7.2-1.2.8-1.3 1.5l-.7
	4.1h-4.5l-.8-4.2c-.1-.7-.6-1.3-1.3-1.5-.5-.2-.9-.4-1.4-.6-.3-.1-.6-.2-.8-.2-.4 0-.8.1-1.1.3L39
	54.5l-3.2-3.1
	2.4-3.5c.4-.6.5-1.3.1-1.9-.2-.5-.4-.9-.6-1.4-.2-.7-.8-1.1-1.5-1.3l-4.1-.7v-4.5l4.1-.8z"></path>
		<path
			d="M50 49.6c2.6 0 5.2-1.1 6.9-3.1 1.5-1.7 2.4-3.9 2.4-6.2 0-5.1-4.2-9.3-9.3-9.3-5.1 0-9.3 4.2-9.3
	9.3 0 2.3.9 4.5 2.4 6.2 1.8 2 4.3 3.1 6.9 3.1zM50 33c4 0 7.3 3.3 7.3 7.3 0 1.8-.7 3.5-1.9
	4.9-1.4 1.5-3.4 2.4-5.4 2.4-2.1 0-4-.9-5.4-2.4-1.2-1.4-1.9-3.1-1.9-4.9 0-4.1 3.3-7.3
	7.3-7.3z"></path>
	</symbol>


	<symbol xmlns="http://www.w3.org/2000/svg" fill="currentColor" enable-background="new 0 0 64 64"
		viewBox="0 0 64 64"
		id="digital_marketing">
		<path
			d="M48 14.5h-4c-.6 0-1 .4-1 1s.4 1 1 1h4c.6 0 1-.4 1-1S48.6 14.5 48 14.5zM51 10.5h-7c-.6 0-1 .4-1
	1s.4 1 1 1h7c.6 0 1-.4 1-1S51.6 10.5 51 10.5zM33 5.5h-3c-.6 0-1 .4-1 1s.4 1 1 1h3c.6 0 1-.4
	1-1S33.6 5.5 33 5.5z"></path>
		<path
	d="M59,5.5H41v-1c0-1.7-1.3-3-3-3H28c-2.2,0-3,1.8-3,3v5c0,1.6,1.3,3,3,3h1.6l2.3,2.3l-20,3.8c0,0-2.6,0.5-4.6,3.1
	c-0.1,0-0.2,0-0.3,0c-1.7,0.3-5,2.3-5,7.9s3.2,7.6,5,7.9c0.1,0,0.1,0,0.2,0c0,0,0.1,0,0.1,0c0.9,1.2,2,2,2.8,2.4
	c0,0.1,0.1,0.2,0.2,0.3l14,18c0.1,0.1,0.2,0.2,0.3,0.2c0.8,0.7,1.9,1.1,3,1.1c2.5,0,4.5-2,4.5-4.5c0-1.1-0.4-2.1-1.1-3
	c0-0.1-0.1-0.1-0.1-0.2l-7.6-9.2l20.6,3.9c0.1,0,0.1,0,0.2,0c0.1,0,0.1,0,0.2,0c0.1,0,0.2,0,0.3,0c4.8,0,8.5-7.5,8.5-17
		c0-2.1-0.2-4.2-0.5-6l2-2H59c1.6,0,3-1.3,3-3v-10C62,7.3,61.2,5.5,59,5.5z
	M38.8,36.5c-0.5-2-0.8-4.4-0.8-7c0-2.6,0.3-5,0.8-7
		c0.1,0,0.1,0,0.2,0c2.2,0,4,3.2,4,7s-1.8,7-4,7C38.9,36.5,38.9,36.5,38.8,36.5z
	M30,10.5h-2c-0.5,0-1-0.4-1-1v-5c0-0.5,0.2-1,1-1
		h10c0.6,0,1,0.4,1,1v5c0,0.6-0.4,1-1,1h-3c-0.6,0-1,0.4-1,1v2.6l-3.3-3.3C30.5,10.6,30.3,10.5,30,10.5z
	M36,12.5h2v1.1L36,14V12.5z
	M34.3,17.2c0.2,0.2,0.4,0.3,0.7,0.3c0.1,0,0.3,0,0.4-0.1c0.4-0.2,0.6-0.5,0.6-0.9V16l2-0.4v2.8c-1.2,2.9-2,6.8-2,11
	c0,6,1.5,11.2,3.8,14.2L20.4,40c0,0,0,0,0,0c-1.5-2.8-2.3-6.6-2.3-10.5s0.8-7.7,2.3-10.5c0,0,0,0,0,0l13.2-2.5L34.3,17.2z
	M4,29.5
		c0-2.8,0.9-4.3,1.8-5.1c-0.5,1.4-0.8,3-0.8,5.1c0,2,0.3,3.7,0.8,5C4.9,33.8,4,32.3,4,29.5z
	M7,29.5c0-8,5-9,5.2-9l5.7-1.1
		c-1.2,2.9-1.9,6.4-1.9,10.1c0,3.7,0.7,7.2,1.9,10.1l-5.8-1.1C12.1,38.5,7,37.6,7,29.5z
	M20.2,42.1l8.8,10.8c0,0.1,0.1,0.2,0.2,0.3
	c0.5,0.5,0.7,1.1,0.7,1.8c0,1.4-1.1,2.5-2.5,2.5c-0.7,0-1.3-0.3-1.8-0.7c0,0-0.1-0.1-0.1-0.1L13.2,40.7L20.2,42.1
		C20.2,42.1,20.2,42.1,20.2,42.1z
	M51,29.5c0,9-3.4,15-6.5,15c-1.9,0-3.9-2.2-5.2-6c3.2-0.3,5.7-4.1,5.7-9c0-3.5-1.3-6.5-3.2-8H48v4
		c0,0.4,0.2,0.8,0.6,0.9c0.1,0.1,0.3,0.1,0.4,0.1c0.3,0,0.5-0.1,0.7-0.3l1-1C50.9,26.5,51,28,51,29.5z
	M60,18.5c0,0.5-0.4,1-1,1h-5
	c-0.3,0-0.5,0.1-0.7,0.3L50,23.1v-2.6c0-0.6-0.4-1-1-1h-8c-0.6,0-1-0.4-1-1v-6.8c0.6-0.5,1-1.3,1-2.2v-2h18c0.8,0,1,0.5,1,1V18.5z"></path>
	</symbol>


	<symbol xmlns="http://www.w3.org/2000/svg" enable-background="new 0 0 32 32"
		viewBox="0 0 32 32" id="time">
		<path fill="currentColor"
			d="M16,31C7.729,31,1,24.271,1,16c0-3.646,1.323-7.16,3.727-9.895C4.91,5.898,5.226,5.879,5.433,6.06
	C5.64,6.242,5.66,6.559,5.479,6.766C3.235,9.317,2,12.597,2,16c0,7.72,6.28,14,14,14s14-6.28,14-14S23.72,2,16,2
	c-2.504,0-4.96,0.668-7.103,1.933C8.662,4.07,8.354,3.994,8.213,3.756C8.072,3.519,8.151,3.212,8.39,3.071
			C10.686,1.716,13.317,1,16,1c8.271,0,15,6.729,15,15S24.271,31,16,31z"></path>
		<path fill="currentColor"
			d="M16,28.5C9.107,28.5,3.5,22.893,3.5,16S9.107,3.5,16,3.5S28.5,9.107,28.5,16S22.893,28.5,16,28.5z
	M16,4.5
			C9.659,4.5,4.5,9.659,4.5,16S9.659,27.5,16,27.5S27.5,22.341,27.5,16S22.341,4.5,16,4.5z"></path>
		<path fill="currentColor"
			d="M20.75 8.27c-.13 0-.26-.05-.351-.14-.1-.1-.149-.23-.149-.36s.05-.26.149-.35c.19-.19.521-.19.7 0
	.101.09.15.22.15.35S21.2 8.03 21.1 8.12C21.01 8.22 20.88 8.27 20.75 8.27zM11.25 24.729c-.13
	0-.26-.06-.351-.149-.1-.101-.149-.23-.149-.351 0-.13.05-.26.14-.359.19-.181.53-.181.71 0
	.101.1.15.229.15.359 0 .12-.05.25-.141.351C11.51 24.67 11.38 24.729 11.25 24.729zM24.229
	11.75c-.13 0-.26-.05-.35-.141-.1-.1-.15-.229-.15-.359s.051-.26.141-.351c.199-.199.529-.189.71 0
	.09.091.149.221.149.351s-.05.26-.149.35C24.49 11.7 24.359 11.75 24.229 11.75zM7.77 21.25c-.13
	0-.25-.05-.35-.141C7.319 21 7.27 20.87 7.27 20.75c0-.13.05-.25.141-.351.22-.199.529-.189.72 0
	.09.091.14.221.14.351s-.05.26-.14.35C8.03 21.2 7.91 21.25 7.77 21.25zM25.5 16.5c-.13
	0-.26-.05-.351-.15C25.05 16.26 25 16.13 25 16s.05-.26.149-.351c.181-.189.511-.189.7-.01C25.95
	15.74 26 15.87 26 16s-.05.26-.141.35C25.76 16.45 25.63 16.5 25.5 16.5zM6.5 16.5c-.13
	0-.26-.05-.351-.15C6.05 16.26 6 16.13 6 16s.05-.26.149-.351c.181-.189.511-.189.7-.01C6.95 15.74
	7 15.87 7 16s-.05.26-.141.35C6.76 16.45 6.63 16.5 6.5 16.5zM24.229 21.25c-.13
	0-.26-.05-.359-.141-.09-.1-.141-.229-.141-.359s.051-.26.141-.351c.199-.199.529-.189.71 0
	.09.091.149.221.149.351s-.05.26-.149.35C24.49 21.2 24.359 21.25 24.229 21.25zM7.77 11.75c-.13
	0-.25-.05-.35-.141C7.319 11.5 7.27 11.37 7.27 11.25c0-.13.05-.25.141-.351.22-.199.529-.189.72 0
	.09.091.14.221.14.351s-.05.26-.14.35C8.03 11.7 7.899 11.75 7.77 11.75zM20.75 24.729c-.13
	0-.26-.05-.351-.14-.1-.11-.149-.23-.149-.36s.05-.26.14-.359c.2-.19.521-.181.71 0
	.101.1.15.229.15.359 0 .12-.05.25-.141.351C21.01 24.68 20.88 24.729 20.75 24.729zM11.25
	8.27c-.13 0-.26-.05-.351-.149C10.8 8.03 10.75 7.899 10.75
	7.77s.05-.26.149-.35c.181-.19.511-.19.7-.01.101.1.15.229.15.359S11.7 8.03 11.6 8.12C11.5 8.22
	11.38 8.27 11.25 8.27zM16 26c-.13 0-.25-.05-.351-.141C15.55 25.75 15.5 25.63 15.5
	25.5s.05-.26.14-.351c.21-.199.53-.189.71 0C16.45 25.24 16.5 25.37 16.5 25.5s-.05.26-.15.35C16.26
	25.95 16.13 26 16 26zM16 7c-.13 0-.25-.05-.351-.141C15.55 6.76 15.5 6.63 15.5
	6.5c0-.141.05-.26.14-.351.21-.199.53-.189.71 0C16.45 6.24 16.5 6.37 16.5
	6.5s-.05.26-.141.35C16.26 6.95 16.13 7 16 7zM22.364 9.636c-.195-.195-.512-.195-.707 0l-5.413
	5.413c.351.091.616.356.707.707l5.413-5.413C22.56 10.147 22.56 9.831 22.364 9.636zM15.756
	15.049l-6.12-6.12c-.195-.195-.512-.195-.707 0s-.195.512 0 .707l6.12 6.12C15.14 15.405 15.405
	15.14 15.756 15.049z"></path>
		<path fill="currentColor"
			d="M16,17.5c-0.827,0-1.5-0.673-1.5-1.5s0.673-1.5,1.5-1.5s1.5,0.673,1.5,1.5S16.827,17.5,16,17.5z
	M16,15.5
			c-0.275,0-0.5,0.225-0.5,0.5s0.225,0.5,0.5,0.5s0.5-0.225,0.5-0.5S16.275,15.5,16,15.5z"></path>
		<g>
			<path fill="currentColor"
				d="M7.5,4.5C7.5,4.775,7.275,5,7,5l0,0C6.725,5,6.5,4.775,6.5,4.5l0,0C6.5,4.225,6.725,4,7,4l0,0
									C7.275,4,7.5,4.225,7.5,4.5L7.5,4.5z"></path>
		</g>
	</symbol>


	<symbol id="telephone_fill" xmlns="http://www.w3.org/2000/svg"
		fill="currentColor" class="bi bi-telephone" viewBox="0 0 16 16">
		<path
			d="M3.654 1.328a.678.678 0 0 0-1.015-.063L1.605 2.3c-.483.484-.661 1.169-.45 1.77a17.568 17.568 0 0
	0 4.168 6.608 17.569 17.569 0 0 0 6.608 4.168c.601.211 1.286.033 1.77-.45l1.034-1.034a.678.678 0
	0 0-.063-1.015l-2.307-1.794a.678.678 0 0 0-.58-.122l-2.19.547a1.745 1.745 0 0 1-1.657-.459L5.482
	8.062a1.745 1.745 0 0 1-.46-1.657l.548-2.19a.678.678 0 0 0-.122-.58L3.654 1.328zM1.884.511a1.745
	1.745 0 0 1 2.612.163L6.29 2.98c.329.423.445.974.315 1.494l-.547 2.19a.678.678 0 0 0
	.178.643l2.457 2.457a.678.678 0 0 0 .644.178l2.189-.547a1.745 1.745 0 0 1 1.494.315l2.306
	1.794c.829.645.905 1.87.163 2.611l-1.034 1.034c-.74.74-1.846 1.065-2.877.702a18.634 18.634 0 0
	1-7.01-4.42 18.634 18.634 0 0 1-4.42-7.009c-.362-1.03-.037-2.137.703-2.877L1.885.511z" />
	</symbol>

	<symbol fill="currentColor" xmlns="http://www.w3.org/2000/svg" id="location">
		<path
			d="M12 23.5c-2.2 0-9-7.4-9-13.9 0-5 4-9.1 9-9.1s9 4.1 9 9.1c0 6.5-6.8 13.9-9 13.9zm0-22c-4.4 0-8
	3.6-8 8.1 0 6.1 6.7 12.9 8 12.9s8-6.8 8-12.9c0-4.5-3.6-8.1-8-8.1zm0 13.8c-3.1 0-5.6-2.6-5.6-5.7
	0-1.2.4-2.4 1.1-3.3 0-.2.3-.3.5-.2.2.1.3.2.4.5 0 .8.7 1.4 1.5 1.4.9 0 1.6-.7 1.6-1.6
	0-.6-.3-1.2-.9-1.4-.2-.1-.3-.3-.3-.5s.2-.4.4-.4c.4-.1.9-.2 1.3-.2 3.1 0 5.6 2.6 5.6 5.7 0
	3.2-2.5 5.7-5.6 5.7zM7.7 7.8c-.2.6-.3 1.2-.3 1.8 0 2.6 2.1 4.7 4.6 4.7 2.6 0 4.6-2.1
	4.6-4.7S14.5 4.9 12 4.9c.3.4.5 1 .5 1.5 0 1.4-1.2 2.6-2.6 2.6-.9 0-1.7-.5-2.2-1.2z"></path>
	</symbol>

	<symbol fill="currentColor" id="left" xmlns="http://www.w3.org/2000/svg" viewBox="0 0 32 32">
		<g data-name="34 - Left">
			<path fill="currentColor"
	d="M10.55,24.05a1.53,1.53,0,0,1-1.07-.44L2.94,17.06a1.49,1.49,0,0,1,0-2.12L9.48,8.39a1.51,1.51,0,0,1,2.13,2.13L6.12,16l5.49,5.48a1.51,1.51,0,0,1-1.06,2.57Z"
	/>
			<path fill="currentColor" d="M28,17.5H6.18a1.5,1.5,0,0,1,0-3H28a1.5,1.5,0,0,1,0,3Z" />
		</g>
	</symbol>

	<symbol id="cart" viewBox="0 -31 512.00026 512" fill="currentColor" stroke="currentColor"
		xmlns="http://www.w3.org/2000/svg">
		<path
			d="m164.960938 300.003906h.023437c.019531 0 .039063-.003906.058594-.003906h271.957031c6.695312 0
	12.582031-4.441406
	14.421875-10.878906l60-210c1.292969-4.527344.386719-9.394532-2.445313-13.152344-2.835937-3.757812-7.269531-5.96875-11.976562-5.96875h-366.632812l-10.722657-48.253906c-1.527343-6.863282-7.613281-11.746094-14.644531-11.746094h-90c-8.285156
	0-15 6.714844-15 15s6.714844 15 15 15h77.96875c1.898438 8.550781 51.3125 230.917969 54.15625
	243.710938-15.941406 6.929687-27.125 22.824218-27.125 41.289062 0 24.8125 20.1875 45 45
	45h272c8.285156 0 15-6.714844 15-15s-6.714844-15-15-15h-272c-8.269531 0-15-6.730469-15-15
	0-8.257812 6.707031-14.976562 14.960938-14.996094zm312.152343-210.003906-51.429687
	180h-248.652344l-40-180zm0 0" />
		<path
			d="m150 405c0 24.8125 20.1875 45 45 45s45-20.1875 45-45-20.1875-45-45-45-45 20.1875-45
	45zm45-15c8.269531 0 15 6.730469 15 15s-6.730469 15-15 15-15-6.730469-15-15 6.730469-15 15-15zm0
	0" />
		<path
			d="m362 405c0 24.8125 20.1875 45 45 45s45-20.1875 45-45-20.1875-45-45-45-45 20.1875-45
	45zm45-15c8.269531 0 15 6.730469 15 15s-6.730469 15-15 15-15-6.730469-15-15 6.730469-15 15-15zm0
	0" />
	</symbol>


	<symbol id="plus" xmlns="http://www.w3.org/2000/svg" viewBox="0 0 24 24">
		<g data-name="Layer 2">
			<g data-name="plus">
				<rect width="24" height="24" opacity="0" transform="rotate(180 12 12)"></rect>
				<path
					d="M19 11h-6V5a1 1 0 0 0-2 0v6H5a1 1 0 0 0 0 2h6v6a1 1 0 0 0 2 0v-6h6a1 1 0 0 0 0-2z"></path>
			</g>
		</g>
	</symbol>

	<symbol id="minus" xmlns="http://www.w3.org/2000/svg" x="0" y="0" version="1.1"
		viewBox="0 0 29 29" xml:space="preserve">
		<path fill="none" stroke="#000" stroke-linecap="round" stroke-linejoin="round"
	stroke-miterlimit="10" stroke-width="2" d="M22 14.5H7"></path>
</symbol>


	<symbol id="delete" xmlns="http://www.w3.org/2000/svg" viewBox="0 0 32 32">
		<path
	d="M24.2,12.193,23.8,24.3a3.988,3.988,0,0,1-4,3.857H12.2a3.988,3.988,0,0,1-4-3.853L7.8,12.193a1,1,0,0,1,2-.066l.4,12.11a2,2,0,0,0,2,1.923h7.6a2,2,0,0,0,2-1.927l.4-12.106a1,1,0,0,1,2,.066Zm1.323-4.029a1,1,0,0,1-1,1H7.478a1,1,0,0,1,0-2h3.1a1.276,1.276,0,0,0,1.273-1.148,2.991,2.991,0,0,1,2.984-2.694h2.33a2.991,2.991,0,0,1,2.984,2.694,1.276,1.276,0,0,0,1.273,1.148h3.1A1,1,0,0,1,25.522,8.164Zm-11.936-1h4.828a3.3,3.3,0,0,1-.255-.944,1,1,0,0,0-.994-.9h-2.33a1,1,0,0,0-.994.9A3.3,3.3,0,0,1,13.586,7.164Zm1.007,15.151V13.8a1,1,0,0,0-2,0v8.519a1,1,0,0,0,2,0Zm4.814,0V13.8a1,1,0,0,0-2,0v8.519a1,1,0,0,0,2,0Z"></path>
	</symbol> -->


	<symbol fill="currentColor" xmlns="http://www.w3.org/2000/svg" id="location">
		<path
			d="M12 23.5c-2.2 0-9-7.4-9-13.9 0-5 4-9.1 9-9.1s9 4.1 9 9.1c0 6.5-6.8 13.9-9 13.9zm0-22c-4.4 0-8 3.6-8 8.1 0 6.1 6.7 12.9 8 12.9s8-6.8 8-12.9c0-4.5-3.6-8.1-8-8.1zm0 13.8c-3.1 0-5.6-2.6-5.6-5.7 0-1.2.4-2.4 1.1-3.3 0-.2.3-.3.5-.2.2.1.3.2.4.5 0 .8.7 1.4 1.5 1.4.9 0 1.6-.7 1.6-1.6 0-.6-.3-1.2-.9-1.4-.2-.1-.3-.3-.3-.5s.2-.4.4-.4c.4-.1.9-.2 1.3-.2 3.1 0 5.6 2.6 5.6 5.7 0 3.2-2.5 5.7-5.6 5.7zM7.7 7.8c-.2.6-.3 1.2-.3 1.8 0 2.6 2.1 4.7 4.6 4.7 2.6 0 4.6-2.1 4.6-4.7S14.5 4.9 12 4.9c.3.4.5 1 .5 1.5 0 1.4-1.2 2.6-2.6 2.6-.9 0-1.7-.5-2.2-1.2z"></path>
	</symbol>

	<symbol xmlns="http://www.w3.org/2000/svg" enable-background="new 0 0 32 32"
		viewBox="0 0 32 32" id="time">
		<path fill="currentColor"
			d="M16,31C7.729,31,1,24.271,1,16c0-3.646,1.323-7.16,3.727-9.895C4.91,5.898,5.226,5.879,5.433,6.06
			C5.64,6.242,5.66,6.559,5.479,6.766C3.235,9.317,2,12.597,2,16c0,7.72,6.28,14,14,14s14-6.28,14-14S23.72,2,16,2
			c-2.504,0-4.96,0.668-7.103,1.933C8.662,4.07,8.354,3.994,8.213,3.756C8.072,3.519,8.151,3.212,8.39,3.071
			C10.686,1.716,13.317,1,16,1c8.271,0,15,6.729,15,15S24.271,31,16,31z"></path>
		<path fill="currentColor"
			d="M16,28.5C9.107,28.5,3.5,22.893,3.5,16S9.107,3.5,16,3.5S28.5,9.107,28.5,16S22.893,28.5,16,28.5z M16,4.5
			C9.659,4.5,4.5,9.659,4.5,16S9.659,27.5,16,27.5S27.5,22.341,27.5,16S22.341,4.5,16,4.5z"></path>
		<path fill="currentColor"
			d="M20.75 8.27c-.13 0-.26-.05-.351-.14-.1-.1-.149-.23-.149-.36s.05-.26.149-.35c.19-.19.521-.19.7 0 .101.09.15.22.15.35S21.2 8.03 21.1 8.12C21.01 8.22 20.88 8.27 20.75 8.27zM11.25 24.729c-.13 0-.26-.06-.351-.149-.1-.101-.149-.23-.149-.351 0-.13.05-.26.14-.359.19-.181.53-.181.71 0 .101.1.15.229.15.359 0 .12-.05.25-.141.351C11.51 24.67 11.38 24.729 11.25 24.729zM24.229 11.75c-.13 0-.26-.05-.35-.141-.1-.1-.15-.229-.15-.359s.051-.26.141-.351c.199-.199.529-.189.71 0 .09.091.149.221.149.351s-.05.26-.149.35C24.49 11.7 24.359 11.75 24.229 11.75zM7.77 21.25c-.13 0-.25-.05-.35-.141C7.319 21 7.27 20.87 7.27 20.75c0-.13.05-.25.141-.351.22-.199.529-.189.72 0 .09.091.14.221.14.351s-.05.26-.14.35C8.03 21.2 7.91 21.25 7.77 21.25zM25.5 16.5c-.13 0-.26-.05-.351-.15C25.05 16.26 25 16.13 25 16s.05-.26.149-.351c.181-.189.511-.189.7-.01C25.95 15.74 26 15.87 26 16s-.05.26-.141.35C25.76 16.45 25.63 16.5 25.5 16.5zM6.5 16.5c-.13 0-.26-.05-.351-.15C6.05 16.26 6 16.13 6 16s.05-.26.149-.351c.181-.189.511-.189.7-.01C6.95 15.74 7 15.87 7 16s-.05.26-.141.35C6.76 16.45 6.63 16.5 6.5 16.5zM24.229 21.25c-.13 0-.26-.05-.359-.141-.09-.1-.141-.229-.141-.359s.051-.26.141-.351c.199-.199.529-.189.71 0 .09.091.149.221.149.351s-.05.26-.149.35C24.49 21.2 24.359 21.25 24.229 21.25zM7.77 11.75c-.13 0-.25-.05-.35-.141C7.319 11.5 7.27 11.37 7.27 11.25c0-.13.05-.25.141-.351.22-.199.529-.189.72 0 .09.091.14.221.14.351s-.05.26-.14.35C8.03 11.7 7.899 11.75 7.77 11.75zM20.75 24.729c-.13 0-.26-.05-.351-.14-.1-.11-.149-.23-.149-.36s.05-.26.14-.359c.2-.19.521-.181.71 0 .101.1.15.229.15.359 0 .12-.05.25-.141.351C21.01 24.68 20.88 24.729 20.75 24.729zM11.25 8.27c-.13 0-.26-.05-.351-.149C10.8 8.03 10.75 7.899 10.75 7.77s.05-.26.149-.35c.181-.19.511-.19.7-.01.101.1.15.229.15.359S11.7 8.03 11.6 8.12C11.5 8.22 11.38 8.27 11.25 8.27zM16 26c-.13 0-.25-.05-.351-.141C15.55 25.75 15.5 25.63 15.5 25.5s.05-.26.14-.351c.21-.199.53-.189.71 0C16.45 25.24 16.5 25.37 16.5 25.5s-.05.26-.15.35C16.26 25.95 16.13 26 16 26zM16 7c-.13 0-.25-.05-.351-.141C15.55 6.76 15.5 6.63 15.5 6.5c0-.141.05-.26.14-.351.21-.199.53-.189.71 0C16.45 6.24 16.5 6.37 16.5 6.5s-.05.26-.141.35C16.26 6.95 16.13 7 16 7zM22.364 9.636c-.195-.195-.512-.195-.707 0l-5.413 5.413c.351.091.616.356.707.707l5.413-5.413C22.56 10.147 22.56 9.831 22.364 9.636zM15.756 15.049l-6.12-6.12c-.195-.195-.512-.195-.707 0s-.195.512 0 .707l6.12 6.12C15.14 15.405 15.405 15.14 15.756 15.049z"></path>
		<path fill="currentColor"
			d="M16,17.5c-0.827,0-1.5-0.673-1.5-1.5s0.673-1.5,1.5-1.5s1.5,0.673,1.5,1.5S16.827,17.5,16,17.5z M16,15.5
			c-0.275,0-0.5,0.225-0.5,0.5s0.225,0.5,0.5,0.5s0.5-0.225,0.5-0.5S16.275,15.5,16,15.5z"></path>
		<g>
			<path fill="currentColor"
				d="M7.5,4.5C7.5,4.775,7.275,5,7,5l0,0C6.725,5,6.5,4.775,6.5,4.5l0,0C6.5,4.225,6.725,4,7,4l0,0
									C7.275,4,7.5,4.225,7.5,4.5L7.5,4.5z"></path>
		</g>
	</symbol>

	<symbol id="telephone_fill" xmlns="http://www.w3.org/2000/svg"
		fill="currentColor" class="bi bi-telephone" viewBox="0 0 16 16">
		<path
			d="M3.654 1.328a.678.678 0 0 0-1.015-.063L1.605 2.3c-.483.484-.661 1.169-.45 1.77a17.568 17.568 0 0 0 4.168 6.608 17.569 17.569 0 0 0 6.608 4.168c.601.211 1.286.033 1.77-.45l1.034-1.034a.678.678 0 0 0-.063-1.015l-2.307-1.794a.678.678 0 0 0-.58-.122l-2.19.547a1.745 1.745 0 0 1-1.657-.459L5.482 8.062a1.745 1.745 0 0 1-.46-1.657l.548-2.19a.678.678 0 0 0-.122-.58L3.654 1.328zM1.884.511a1.745 1.745 0 0 1 2.612.163L6.29 2.98c.329.423.445.974.315 1.494l-.547 2.19a.678.678 0 0 0 .178.643l2.457 2.457a.678.678 0 0 0 .644.178l2.189-.547a1.745 1.745 0 0 1 1.494.315l2.306 1.794c.829.645.905 1.87.163 2.611l-1.034 1.034c-.74.74-1.846 1.065-2.877.702a18.634 18.634 0 0 1-7.01-4.42 18.634 18.634 0 0 1-4.42-7.009c-.362-1.03-.037-2.137.703-2.877L1.885.511z" />
	</symbol>

	<symbol id="mail" viewBox="0 0 11 9" fill="none"
		xmlns="http://www.w3.org/2000/svg">
		<path fill-rule="evenodd" clip-rule="evenodd"
			d="M3.69823 -0.000976433H7.30175C7.8528 -0.000981433 8.2972 -0.000986414 8.6569 0.0288836C9.02735 0.0596486 9.35245 0.124654 9.65245 0.280489C10.109 0.517679 10.4813 0.889979 10.7185 1.34659C10.8743 1.64659 10.9394 1.9717 10.9701 2.3421C11 2.7018 11 3.14624 11 3.69727V5.30077C11 5.85182 11 6.29622 10.9701 6.65592C10.9394 7.02637 10.8743 7.35147 10.7185 7.65147C10.4813 8.10807 10.109 8.48037 9.65245 8.71757C9.35245 8.87337 9.02735 8.93842 8.6569 8.96917C8.2972 8.99902 7.8528 8.99902 7.30175 8.99902H3.69825C3.14722 8.99902 2.70279 8.99902 2.34308 8.96917C1.97268 8.93842 1.64757 8.87337 1.34757 8.71757C0.890955 8.48037 0.518655 8.10807 0.281465 7.65147C0.12563 7.35147 0.0606252 7.02637 0.0298601 6.65592C-8.85129e-06 6.29622 -4.87113e-06 5.85182 1.28865e-07 5.30077V3.69727C-4.87113e-06 3.14623 -8.85129e-06 2.7018 0.0298601 2.3421C0.0606252 1.9717 0.12563 1.64659 0.281465 1.34659C0.518655 0.889979 0.890955 0.517679 1.34757 0.280489C1.64757 0.124654 1.97268 0.0596486 2.34308 0.0288836C2.70278 -0.000986414 3.14721 -0.000981433 3.69823 -0.000976433ZM2.12637 1.06427C2.55069 1.16383 2.94459 1.37482 3.26509 1.68006L4.7345 3.07948C4.9377 3.27301 5.0687 3.39727 5.17615 3.48411C5.27875 3.56707 5.32705 3.58802 5.35375 3.59622C5.4491 3.62537 5.5509 3.62537 5.64625 3.59622C5.67295 3.58802 5.72125 3.56707 5.82385 3.48411C5.9313 3.39727 6.0623 3.27301 6.2655 3.07948L7.7349 1.68006C8.0554 1.37482 8.4493 1.16383 8.87365 1.06427C8.7896 1.04814 8.6914 1.03519 8.57415 1.02545C8.2607 0.999424 7.8579 0.999024 7.28 0.999024H3.72C3.14212 0.999024 2.73928 0.999424 2.42584 1.02545C2.30858 1.03519 2.21039 1.04814 2.12637 1.06427ZM9.9053 1.99902H9.4375C9.06035 1.99902 8.69765 2.1441 8.42455 2.4042L6.9414 3.81677C6.7559 3.99342 6.5954 4.14627 6.45255 4.26177C6.30135 4.38402 6.138 4.49152 5.9387 4.55247C5.65275 4.63992 5.34725 4.63992 5.0613 4.55247C4.862 4.49152 4.69865 4.38402 4.54745 4.26177C4.40461 4.14627 4.24411 3.99342 4.0586 3.81672L2.57543 2.4042C2.30233 2.1441 1.93964 1.99902 1.5625 1.99902H1.09471C1.0643 2.10734 1.04152 2.24323 1.02643 2.42486C1.0004 2.7383 1 3.14114 1 3.71902V5.27902C1 5.85692 1.0004 6.25972 1.02643 6.57317C1.05197 6.88062 1.09955 7.05702 1.16888 7.19047C1.3112 7.46447 1.53458 7.68782 1.80854 7.83012C1.94202 7.89947 2.11839 7.94707 2.42584 7.97257C2.73928 7.99862 3.14212 7.99902 3.72 7.99902H7.28C7.8579 7.99902 8.2607 7.99862 8.57415 7.97257C8.8816 7.94707 9.058 7.89947 9.19145 7.83012C9.46545 7.68782 9.6888 7.46447 9.8311 7.19047C9.90045 7.05702 9.94805 6.88062 9.97355 6.57317C9.9996 6.25972 10 5.85692 10 5.27902V3.71902C10 3.14114 9.9996 2.7383 9.97355 2.42486C9.9585 2.24323 9.9357 2.10734 9.9053 1.99902Z"
			fill="currentColor" />
	</symbol>

	<symbol id="vk" fill="currentColor" viewBox="0 0 20 20"
		xmlns="http://www.w3.org/2000/svg">
		<path
			d="M10 .4C4.698.4.4 4.698.4 10s4.298 9.6 9.6 9.6 9.6-4.298 9.6-9.6S15.302.4 10 .4zm3.692 10.831s.849.838 1.058 1.227c.006.008.009.016.011.02.085.143.105.254.063.337-.07.138-.31.206-.392.212h-1.5c-.104 0-.322-.027-.586-.209-.203-.142-.403-.375-.598-.602-.291-.338-.543-.63-.797-.63a.305.305 0 0 0-.095.015c-.192.062-.438.336-.438 1.066 0 .228-.18.359-.307.359h-.687c-.234 0-1.453-.082-2.533-1.221-1.322-1.395-2.512-4.193-2.522-4.219-.075-.181.08-.278.249-.278h1.515c.202 0 .268.123.314.232.054.127.252.632.577 1.2.527.926.85 1.302 1.109 1.302a.3.3 0 0 0 .139-.036c.338-.188.275-1.393.26-1.643 0-.047-.001-.539-.174-.775-.124-.171-.335-.236-.463-.26a.55.55 0 0 1 .199-.169c.232-.116.65-.133 1.065-.133h.231c.45.006.566.035.729.076.33.079.337.292.308 1.021-.009.207-.018.441-.018.717 0 .06-.003.124-.003.192-.01.371-.022.792.24.965a.216.216 0 0 0 .114.033c.091 0 .365 0 1.107-1.273a9.718 9.718 0 0 0 .595-1.274c.015-.026.059-.106.111-.137a.266.266 0 0 1 .124-.029h1.781c.194 0 .327.029.352.104.044.119-.008.482-.821 1.583l-.363.479c-.737.966-.737 1.015.046 1.748z" />
	</symbol>

	<symbol id="telegram" fill="currentColor" viewBox="0 0 32 32" version="1.1"
		xmlns="http://www.w3.org/2000/svg">
		<path
			d="M22.122 10.040c0.006-0 0.014-0 0.022-0 0.209 0 0.403 0.065 0.562 0.177l-0.003-0.002c0.116 0.101 0.194 0.243 0.213 0.403l0 0.003c0.020 0.122 0.031 0.262 0.031 0.405 0 0.065-0.002 0.129-0.007 0.193l0-0.009c-0.225 2.369-1.201 8.114-1.697 10.766-0.21 1.123-0.623 1.499-1.023 1.535-0.869 0.081-1.529-0.574-2.371-1.126-1.318-0.865-2.063-1.403-3.342-2.246-1.479-0.973-0.52-1.51 0.322-2.384 0.221-0.23 4.052-3.715 4.127-4.031 0.004-0.019 0.006-0.040 0.006-0.062 0-0.078-0.029-0.149-0.076-0.203l0 0c-0.052-0.034-0.117-0.053-0.185-0.053-0.045 0-0.088 0.009-0.128 0.024l0.002-0.001q-0.198 0.045-6.316 4.174c-0.445 0.351-1.007 0.573-1.619 0.599l-0.006 0c-0.867-0.105-1.654-0.298-2.401-0.573l0.074 0.024c-0.938-0.306-1.683-0.467-1.619-0.985q0.051-0.404 1.114-0.827 6.548-2.853 8.733-3.761c1.607-0.853 3.47-1.555 5.429-2.010l0.157-0.031zM15.93 1.025c-8.302 0.020-15.025 6.755-15.025 15.060 0 8.317 6.742 15.060 15.060 15.060s15.060-6.742 15.060-15.060c0-8.305-6.723-15.040-15.023-15.060h-0.002q-0.035-0-0.070 0z"></path>
	</symbol>

	<symbol id="whatsapp" viewBox="0 0 20 20" version="1.1"
		xmlns="http://www.w3.org/2000/svg" xmlns:xlink="http://www.w3.org/1999/xlink">
		<g id="Page-1" stroke="none" stroke-width="1" fill="currentColor" fill-rule="evenodd">
			<g id="Dribbble-Light-Preview" transform="translate(-300.000000, -7599.000000)"
				fill="currentColor">
				<g id="icons" transform="translate(56.000000, 160.000000)">
					<path
						d="M259.821,7453.12124 C259.58,7453.80344 258.622,7454.36761 257.858,7454.53266 C257.335,7454.64369 256.653,7454.73172 254.355,7453.77943 C251.774,7452.71011 248.19,7448.90097 248.19,7446.36621 C248.19,7445.07582 248.934,7443.57337 250.235,7443.57337 C250.861,7443.57337 250.999,7443.58538 251.205,7444.07952 C251.446,7444.6617 252.034,7446.09613 252.104,7446.24317 C252.393,7446.84635 251.81,7447.19946 251.387,7447.72462 C251.252,7447.88266 251.099,7448.05372 251.27,7448.3478 C251.44,7448.63589 252.028,7449.59418 252.892,7450.36341 C254.008,7451.35771 254.913,7451.6748 255.237,7451.80984 C255.478,7451.90987 255.766,7451.88687 255.942,7451.69881 C256.165,7451.45774 256.442,7451.05762 256.724,7450.6635 C256.923,7450.38141 257.176,7450.3464 257.441,7450.44643 C257.62,7450.50845 259.895,7451.56477 259.991,7451.73382 C260.062,7451.85686 260.062,7452.43903 259.821,7453.12124 M254.002,7439 L253.997,7439 L253.997,7439 C248.484,7439 244,7443.48535 244,7449 C244,7451.18666 244.705,7453.21526 245.904,7454.86076 L244.658,7458.57687 L248.501,7457.3485 C250.082,7458.39482 251.969,7459 254.002,7459 C259.515,7459 264,7454.51465 264,7449 C264,7443.48535 259.515,7439 254.002,7439"
						id="whatsapp-[#128]">

					</path>
				</g>
			</g>
		</g>
	</symbol>
</svg>